PathFileType	4	(X/Y/Z)	D:\TRACE\spot_10-12-23\spot_arm_body_motion_3_8-v60.trc
DataRate	CameraRate	NumFrames	NumMarkers	Units	OrigDataRate	OrigDataStartFrame	OrigNumFrames
100.00	100.00	      17	9	mm	100.00	3501	      7000
Frame#	Time	front left toe			Front right toe			aft left toe			aft right toe			Arm			FL body			FR body			AL Body			AR Body			
		X1	Y1	Z1	X2	Y2	Z2	X3	Y3	Z3	X4	Y4	Z4	X5	Y5	Z5	X6	Y6	Z6	X7	Y7	Z7	X8	Y8	Z8	X9	Y9	Z9	

3501	35.000	-167.91182	-4.09374	-451.65726	266.02353	-2.31397	-482.39267	-67.36651	21.99781	218.86809	280.80096	20.25841	129.62691	32.12632	765.80011	-763.13989	-33.60725	584.77307	-464.68558	118.68720	587.75781	-474.48566	20.25094	575.90686	418.13293	170.14389	572.93909	410.57690	
3502	35.010	-167.69420	-4.16511	-451.62323	266.03171	-2.31128	-482.72092	-67.11813	21.64314	218.91301	281.13110	19.91413	129.30060	31.99365	765.32190	-763.63568	-33.71886	584.40466	-465.59946	118.36117	587.64252	-475.82016	19.32026	576.84088	416.94650	169.59567	573.87433	409.86517	
3503	35.020	-167.19351	-4.12870	-451.64124	266.67557	-2.11950	-482.54346	-66.69076	21.20722	218.89844	281.28079	19.82521	129.18578	31.16538	764.81073	-764.01447	-34.02846	584.07477	-466.36163	117.69539	587.88702	-476.59894	19.04887	577.51605	416.39923	168.99387	574.79132	408.59473	
3504	35.030	-166.95718	-4.03231	-451.59091	267.10254	-2.01125	-482.63962	-66.26536	21.16687	218.91490	281.53052	19.81885	129.21068	30.16890	764.64624	-764.22614	-34.20533	583.49152	-467.33942	117.74493	587.35107	-477.43695	18.59435	578.45215	415.70102	168.74489	575.77570	408.11166	
3505	35.040	-166.82230	-3.83259	-451.45453	267.30008	-1.90746	-482.67496	-65.87592	21.32456	218.82072	281.87241	19.86777	129.20547	29.43044	764.60767	-764.34442	-34.59098	583.53052	-468.19598	117.43111	587.48389	-478.35376	18.85834	579.48700	414.73752	168.63187	576.80121	407.19946	
3506	35.050	-166.22083	-3.64856	-451.38702	267.82040	-1.53050	-482.51334	-65.36733	21.38156	218.89458	282.49030	19.86618	129.31058	28.66148	764.70990	-764.37006	-35.14634	583.27551	-469.09369	116.97739	587.26208	-479.45889	18.83641	579.92584	413.88928	168.86375	577.60364	406.06586	
3507	35.060	-166.02953	-3.53763	-451.22281	267.98251	-1.21064	-482.61075	-65.01088	21.25532	218.89914	282.95850	19.76112	129.22499	28.08218	764.68127	-764.59265	-35.75707	582.93799	-469.98260	116.44535	587.28424	-480.35416	19.06632	580.65759	412.86273	169.28748	578.09845	405.58823	
3508	35.070	-165.80867	-3.70259	-451.07513	268.22101	-0.67024	-482.65033	-64.71949	21.01744	218.82741	283.32233	19.41770	128.83755	28.15961	764.48932	-764.74323	-36.35570	582.36823	-470.85608	115.74124	586.66632	-481.30728	19.35996	580.35126	411.41251	169.35306	578.68781	404.02475	
3509	35.080	-165.38945	-3.74311	-450.90619	268.32431	-0.24596	-482.69293	-64.34442	20.83581	218.88882	284.21298	19.64435	128.99657	28.48138	764.58148	-764.75262	-37.01240	582.05115	-471.51978	114.76859	586.79028	-482.56503	19.71571	580.94452	410.60236	169.90707	579.33618	402.86331	
3510	35.090	-165.26860	-3.38828	-450.65186	268.47324	0.10524	-482.69763	-63.95520	20.99758	218.93846	284.01309	19.24931	128.67543	28.95591	764.85382	-764.65326	-37.69631	582.06879	-472.53323	114.07196	586.52997	-483.61575	20.54978	581.38885	409.68604	170.18567	579.75635	401.72629	
3511	35.100	-165.02539	-2.99107	-450.51178	268.56937	0.50532	-482.79425	-63.61641	21.15321	219.02161	284.40710	19.27712	128.81459	29.64977	765.15881	-764.68939	-38.24125	582.13446	-473.35123	113.78413	586.51251	-484.65561	21.13377	582.18665	409.09598	171.09332	580.72156	400.76950	
3512	35.110	-165.19884	-2.28959	-450.56268	268.74719	0.82985	-482.88925	-63.10679	20.95763	219.13008	284.92786	19.31287	129.00029	30.76189	765.28448	-764.77863	-38.70684	582.08112	-474.30435	113.39427	586.37335	-485.51196	21.13747	582.53418	407.75381	171.66434	581.02209	400.09772	
3513	35.120	-164.91043	-2.12059	-450.50146	268.89096	1.30700	-482.78006	-62.87463	20.53264	219.12479	285.20514	18.99973	128.95399	31.99331	765.05328	-764.85834	-38.67981	581.76544	-475.17078	113.46895	586.33289	-486.65979	21.18464	582.90576	406.91495	171.32307	581.16528	398.50232	
3514	35.130	-164.48079	-1.98132	-450.44955	268.75220	1.67629	-482.90030	-62.58847	20.15813	219.13922	285.57227	18.97696	129.11931	33.21635	765.06464	-764.84454	-38.59967	581.81262	-476.08737	113.15885	586.41803	-487.36624	21.46259	583.23877	406.39944	171.13782	581.72150	397.75482	
3515	35.140	-164.07961	-1.50624	-450.49142	269.57092	2.16863	-482.31299	-62.37985	20.01944	219.20551	285.54886	18.49382	128.93774	34.07056	765.42523	-764.70190	-38.23825	582.05841	-477.16046	113.69774	586.80042	-488.65848	21.24111	583.23737	405.04626	170.92969	582.02484	396.79614	
3516	35.150	-163.75233	-0.75237	-450.47675	269.90128	3.07243	-482.46399	-62.34633	20.03440	219.22917	285.72525	19.18570	128.82808	34.81699	765.55280	-764.65009	-37.70922	582.46045	-477.93674	114.60552	587.02118	-488.67953	21.09010	583.77612	404.22311	171.20531	582.46179	396.08340	
3517	35.160	-163.58492	-0.29920	-450.44247	270.18085	3.30245	-482.09076	-62.40229	19.95922	219.32750	285.68338	19.29525	129.19109	34.80564	765.10760	-764.86218	-36.89656	582.72815	-478.78604	113.59486	588.41248	-490.31830	20.61280	584.17682	403.30261	171.21263	582.65033	395.82785	
